<svg id="visual" viewBox="0 0 900 600" width="900" height="600" xmlns="http://www.w3.org/2000/svg" xmlns:xlink="http://www.w3.org/1999/xlink" version="1.1"><rect x="0" y="0" width="900" height="600" fill="#001220"></rect><path d="M0 279L21.5 297.2C43 315.3 86 351.7 128.8 350.8C171.7 350 214.3 312 257.2 304.5C300 297 343 320 385.8 340.2C428.7 360.3 471.3 377.7 514.2 366.5C557 355.3 600 315.7 642.8 307.8C685.7 300 728.3 324 771.2 330.8C814 337.7 857 327.3 878.5 322.2L900 317L900 601L878.5 601C857 601 814 601 771.2 601C728.3 601 685.7 601 642.8 601C600 601 557 601 514.2 601C471.3 601 428.7 601 385.8 601C343 601 300 601 257.2 601C214.3 601 171.7 601 128.8 601C86 601 43 601 21.5 601L0 601Z" fill="#fa7268"></path><path d="M0 431L21.5 421C43 411 86 391 128.8 385.3C171.7 379.7 214.3 388.3 257.2 382C300 375.7 343 354.3 385.8 358.5C428.7 362.7 471.3 392.3 514.2 400.2C557 408 600 394 642.8 398.8C685.7 403.7 728.3 427.3 771.2 424.5C814 421.7 857 392.3 878.5 377.7L900 363L900 601L878.5 601C857 601 814 601 771.2 601C728.3 601 685.7 601 642.8 601C600 601 557 601 514.2 601C471.3 601 428.7 601 385.8 601C343 601 300 601 257.2 601C214.3 601 171.7 601 128.8 601C86 601 43 601 21.5 601L0 601Z" fill="#eb5967"></path><path d="M0 466L21.5 456.2C43 446.3 86 426.7 128.8 425C171.7 423.3 214.3 439.7 257.2 446C300 452.3 343 448.7 385.8 446.2C428.7 443.7 471.3 442.3 514.2 450.2C557 458 600 475 642.8 474.7C685.7 474.3 728.3 456.7 771.2 456.7C814 456.7 857 474.3 878.5 483.2L900 492L900 601L878.5 601C857 601 814 601 771.2 601C728.3 601 685.7 601 642.8 601C600 601 557 601 514.2 601C471.3 601 428.7 601 385.8 601C343 601 300 601 257.2 601C214.3 601 171.7 601 128.8 601C86 601 43 601 21.5 601L0 601Z" fill="#da3f67"></path><path d="M0 525L21.5 526.8C43 528.7 86 532.3 128.8 537C171.7 541.7 214.3 547.3 257.2 545.7C300 544 343 535 385.8 533.7C428.7 532.3 471.3 538.7 514.2 534.5C557 530.3 600 515.7 642.8 514.7C685.7 513.7 728.3 526.3 771.2 528.2C814 530 857 521 878.5 516.5L900 512L900 601L878.5 601C857 601 814 601 771.2 601C728.3 601 685.7 601 642.8 601C600 601 557 601 514.2 601C471.3 601 428.7 601 385.8 601C343 601 300 601 257.2 601C214.3 601 171.7 601 128.8 601C86 601 43 601 21.5 601L0 601Z" fill="#c62368"></path></svg>